<mxfile host="app.diagrams.net" agent="Mozilla/5.0 (Windows NT 10.0; Win64; x64) AppleWebKit/537.36 (KHTML, like Gecko) Chrome/131.0.0.0 Safari/537.36" version="25.0.3">
  <diagram name="Page-1" id="5ifLR0RCm1vcTMwxVAIT">
    <mxGraphModel dx="1906" dy="1170" grid="1" gridSize="10" guides="1" tooltips="1" connect="1" arrows="1" fold="1" page="1" pageScale="1" pageWidth="850" pageHeight="1100" math="0" shadow="0">
      <root>
        <mxCell id="0" />
        <mxCell id="1" parent="0" />
        <mxCell id="Ffj6h-5UyAmUtSpPR5nd-6" value="" style="rounded=0;whiteSpace=wrap;html=1;shadow=0;sketch=1;curveFitting=1;jiggle=2;fillColor=none;strokeColor=#9AC7BF;" vertex="1" parent="1">
          <mxGeometry x="230" y="356" width="440" height="200" as="geometry" />
        </mxCell>
        <mxCell id="Ffj6h-5UyAmUtSpPR5nd-8" value="" style="rounded=0;html=1;shadow=0;sketch=1;curveFitting=1;jiggle=2;fillColor=#ffcc99;strokeColor=#FFCE9F;whiteSpace=wrap;" vertex="1" parent="1">
          <mxGeometry x="350" y="356" width="200" height="200" as="geometry" />
        </mxCell>
        <mxCell id="Ffj6h-5UyAmUtSpPR5nd-10" value="" style="endArrow=none;html=1;rounded=0;sketch=1;hachureGap=4;jiggle=2;curveFitting=1;fontFamily=Architects Daughter;fontSource=https%3A%2F%2Ffonts.googleapis.com%2Fcss%3Ffamily%3DArchitects%2BDaughter;dashed=1;strokeColor=#99CCFF;" edge="1" parent="1">
          <mxGeometry width="50" height="50" relative="1" as="geometry">
            <mxPoint x="630" y="636" as="sourcePoint" />
            <mxPoint x="630" y="356" as="targetPoint" />
          </mxGeometry>
        </mxCell>
        <mxCell id="Ffj6h-5UyAmUtSpPR5nd-11" value="" style="endArrow=none;html=1;rounded=0;sketch=1;hachureGap=4;jiggle=2;curveFitting=1;fontFamily=Architects Daughter;fontSource=https%3A%2F%2Ffonts.googleapis.com%2Fcss%3Ffamily%3DArchitects%2BDaughter;dashed=1;strokeColor=#99CCFF;" edge="1" parent="1">
          <mxGeometry width="50" height="50" relative="1" as="geometry">
            <mxPoint x="630" y="636" as="sourcePoint" />
            <mxPoint x="350" y="636" as="targetPoint" />
          </mxGeometry>
        </mxCell>
        <mxCell id="Ffj6h-5UyAmUtSpPR5nd-12" value="" style="endArrow=none;html=1;rounded=0;sketch=1;hachureGap=4;jiggle=2;curveFitting=1;fontFamily=Architects Daughter;fontSource=https%3A%2F%2Ffonts.googleapis.com%2Fcss%3Ffamily%3DArchitects%2BDaughter;dashed=1;strokeColor=#99CCFF;" edge="1" parent="1">
          <mxGeometry width="50" height="50" relative="1" as="geometry">
            <mxPoint x="350" y="636" as="sourcePoint" />
            <mxPoint x="350" y="556" as="targetPoint" />
          </mxGeometry>
        </mxCell>
        <mxCell id="Ffj6h-5UyAmUtSpPR5nd-13" value="" style="endArrow=oval;html=1;rounded=0;hachureGap=4;fontFamily=Architects Daughter;fontSource=https%3A%2F%2Ffonts.googleapis.com%2Fcss%3Ffamily%3DArchitects%2BDaughter;sketch=1;curveFitting=1;jiggle=2;horizontal=1;startArrow=classicThin;startFill=1;fillColor=#ffcccc;strokeColor=#EBAC81;strokeWidth=2;entryX=0;entryY=0;entryDx=0;entryDy=0;endFill=1;" edge="1" parent="1" target="Ffj6h-5UyAmUtSpPR5nd-8">
          <mxGeometry width="50" height="50" relative="1" as="geometry">
            <mxPoint x="310" y="316" as="sourcePoint" />
            <mxPoint x="420" y="316" as="targetPoint" />
          </mxGeometry>
        </mxCell>
        <mxCell id="Ffj6h-5UyAmUtSpPR5nd-15" value="O&lt;sub&gt;1&lt;/sub&gt;" style="text;html=1;align=center;verticalAlign=middle;resizable=0;points=[];autosize=1;strokeColor=none;fillColor=none;fontFamily=Architects Daughter;fontSource=https%3A%2F%2Ffonts.googleapis.com%2Fcss%3Ffamily%3DArchitects%2BDaughter;fontSize=18;fontStyle=1" vertex="1" parent="1">
          <mxGeometry x="340" y="316" width="40" height="40" as="geometry" />
        </mxCell>
        <mxCell id="Ffj6h-5UyAmUtSpPR5nd-16" value="O&lt;sub&gt;2&lt;/sub&gt;" style="text;html=1;align=center;verticalAlign=middle;resizable=0;points=[];autosize=1;strokeColor=none;fillColor=none;fontFamily=Architects Daughter;fontSource=https%3A%2F%2Ffonts.googleapis.com%2Fcss%3Ffamily%3DArchitects%2BDaughter;fontSize=18;fontStyle=1" vertex="1" parent="1">
          <mxGeometry x="280" y="266" width="40" height="40" as="geometry" />
        </mxCell>
        <mxCell id="Ffj6h-5UyAmUtSpPR5nd-17" value="O&lt;span style=&quot;font-size: 12.5px;&quot;&gt;&lt;sub&gt;0&lt;/sub&gt;&lt;/span&gt;" style="text;html=1;align=center;verticalAlign=middle;resizable=0;points=[];autosize=1;strokeColor=none;fillColor=none;fontFamily=Architects Daughter;fontSource=https%3A%2F%2Ffonts.googleapis.com%2Fcss%3Ffamily%3DArchitects%2BDaughter;fontSize=18;fontStyle=1" vertex="1" parent="1">
          <mxGeometry x="200" y="326" width="40" height="40" as="geometry" />
        </mxCell>
        <mxCell id="Ffj6h-5UyAmUtSpPR5nd-18" value="" style="endArrow=none;html=1;rounded=0;sketch=1;hachureGap=4;jiggle=2;curveFitting=1;fontFamily=Architects Daughter;fontSource=https%3A%2F%2Ffonts.googleapis.com%2Fcss%3Ffamily%3DArchitects%2BDaughter;dashed=1;" edge="1" parent="1">
          <mxGeometry width="50" height="50" relative="1" as="geometry">
            <mxPoint x="309.76" y="356" as="sourcePoint" />
            <mxPoint x="309.76" y="316" as="targetPoint" />
          </mxGeometry>
        </mxCell>
        <mxCell id="Ffj6h-5UyAmUtSpPR5nd-20" value="VIDEO" style="text;html=1;align=center;verticalAlign=middle;resizable=0;points=[];autosize=1;strokeColor=none;fillColor=none;fontFamily=Architects Daughter;fontSource=https%3A%2F%2Ffonts.googleapis.com%2Fcss%3Ffamily%3DArchitects%2BDaughter;fontSize=18;" vertex="1" parent="1">
          <mxGeometry x="415" y="436" width="70" height="40" as="geometry" />
        </mxCell>
        <mxCell id="Ffj6h-5UyAmUtSpPR5nd-21" value="" style="endArrow=classic;startArrow=classic;html=1;rounded=0;shadow=0;sketch=1;curveFitting=1;jiggle=2;" edge="1" parent="1">
          <mxGeometry width="50" height="50" relative="1" as="geometry">
            <mxPoint x="350" y="366" as="sourcePoint" />
            <mxPoint x="549" y="366" as="targetPoint" />
          </mxGeometry>
        </mxCell>
        <mxCell id="Ffj6h-5UyAmUtSpPR5nd-22" value="&lt;div&gt;&lt;br&gt;&lt;/div&gt;&lt;div&gt;&lt;br&gt;&lt;/div&gt;" style="edgeLabel;html=1;align=center;verticalAlign=middle;resizable=0;points=[];sketch=1;hachureGap=4;jiggle=2;curveFitting=1;fontFamily=Architects Daughter;fontSource=https%3A%2F%2Ffonts.googleapis.com%2Fcss%3Ffamily%3DArchitects%2BDaughter;" vertex="1" connectable="0" parent="Ffj6h-5UyAmUtSpPR5nd-21">
          <mxGeometry x="0.8869" y="-3" relative="1" as="geometry">
            <mxPoint as="offset" />
          </mxGeometry>
        </mxCell>
        <mxCell id="Ffj6h-5UyAmUtSpPR5nd-25" value="" style="endArrow=classic;startArrow=classic;html=1;rounded=0;shadow=0;sketch=1;curveFitting=1;jiggle=2;" edge="1" parent="1">
          <mxGeometry width="50" height="50" relative="1" as="geometry">
            <mxPoint x="550" y="341.83" as="sourcePoint" />
            <mxPoint x="630" y="342" as="targetPoint" />
          </mxGeometry>
        </mxCell>
        <mxCell id="Ffj6h-5UyAmUtSpPR5nd-26" value="&lt;div&gt;&lt;br&gt;&lt;/div&gt;&lt;div&gt;&lt;br&gt;&lt;/div&gt;" style="edgeLabel;html=1;align=center;verticalAlign=middle;resizable=0;points=[];sketch=1;hachureGap=4;jiggle=2;curveFitting=1;fontFamily=Architects Daughter;fontSource=https%3A%2F%2Ffonts.googleapis.com%2Fcss%3Ffamily%3DArchitects%2BDaughter;" vertex="1" connectable="0" parent="Ffj6h-5UyAmUtSpPR5nd-25">
          <mxGeometry x="0.8869" y="-3" relative="1" as="geometry">
            <mxPoint as="offset" />
          </mxGeometry>
        </mxCell>
        <mxCell id="Ffj6h-5UyAmUtSpPR5nd-30" value="" style="endArrow=classic;startArrow=classic;html=1;rounded=0;shadow=0;sketch=1;curveFitting=1;jiggle=2;" edge="1" parent="1">
          <mxGeometry width="50" height="50" relative="1" as="geometry">
            <mxPoint x="210" y="356" as="sourcePoint" />
            <mxPoint x="211" y="556" as="targetPoint" />
          </mxGeometry>
        </mxCell>
        <mxCell id="Ffj6h-5UyAmUtSpPR5nd-31" value="&lt;div&gt;&lt;br&gt;&lt;/div&gt;&lt;div&gt;&lt;br&gt;&lt;/div&gt;" style="edgeLabel;html=1;align=center;verticalAlign=middle;resizable=0;points=[];sketch=1;hachureGap=4;jiggle=2;curveFitting=1;fontFamily=Architects Daughter;fontSource=https%3A%2F%2Ffonts.googleapis.com%2Fcss%3Ffamily%3DArchitects%2BDaughter;" vertex="1" connectable="0" parent="Ffj6h-5UyAmUtSpPR5nd-30">
          <mxGeometry x="0.8869" y="-3" relative="1" as="geometry">
            <mxPoint as="offset" />
          </mxGeometry>
        </mxCell>
        <mxCell id="Ffj6h-5UyAmUtSpPR5nd-34" value="" style="endArrow=classic;startArrow=classic;html=1;rounded=0;shadow=0;sketch=1;curveFitting=1;jiggle=2;" edge="1" parent="1">
          <mxGeometry width="50" height="50" relative="1" as="geometry">
            <mxPoint x="359.5" y="356" as="sourcePoint" />
            <mxPoint x="360.5" y="556" as="targetPoint" />
          </mxGeometry>
        </mxCell>
        <mxCell id="Ffj6h-5UyAmUtSpPR5nd-35" value="&lt;div&gt;&lt;br&gt;&lt;/div&gt;&lt;div&gt;&lt;br&gt;&lt;/div&gt;" style="edgeLabel;html=1;align=center;verticalAlign=middle;resizable=0;points=[];sketch=1;hachureGap=4;jiggle=2;curveFitting=1;fontFamily=Architects Daughter;fontSource=https%3A%2F%2Ffonts.googleapis.com%2Fcss%3Ffamily%3DArchitects%2BDaughter;" vertex="1" connectable="0" parent="Ffj6h-5UyAmUtSpPR5nd-34">
          <mxGeometry x="0.8869" y="-3" relative="1" as="geometry">
            <mxPoint as="offset" />
          </mxGeometry>
        </mxCell>
        <mxCell id="Ffj6h-5UyAmUtSpPR5nd-37" value="" style="endArrow=classic;startArrow=classic;html=1;rounded=0;shadow=0;sketch=1;curveFitting=1;jiggle=2;" edge="1" parent="1">
          <mxGeometry width="50" height="50" relative="1" as="geometry">
            <mxPoint x="330" y="556" as="sourcePoint" />
            <mxPoint x="330" y="636" as="targetPoint" />
          </mxGeometry>
        </mxCell>
        <mxCell id="Ffj6h-5UyAmUtSpPR5nd-38" value="&lt;div&gt;&lt;br&gt;&lt;/div&gt;&lt;div&gt;&lt;br&gt;&lt;/div&gt;" style="edgeLabel;html=1;align=center;verticalAlign=middle;resizable=0;points=[];sketch=1;hachureGap=4;jiggle=2;curveFitting=1;fontFamily=Architects Daughter;fontSource=https%3A%2F%2Ffonts.googleapis.com%2Fcss%3Ffamily%3DArchitects%2BDaughter;" vertex="1" connectable="0" parent="Ffj6h-5UyAmUtSpPR5nd-37">
          <mxGeometry x="0.8869" y="-3" relative="1" as="geometry">
            <mxPoint as="offset" />
          </mxGeometry>
        </mxCell>
        <mxCell id="Ffj6h-5UyAmUtSpPR5nd-42" value="" style="endArrow=classic;startArrow=classic;html=1;rounded=0;shadow=0;sketch=1;curveFitting=1;jiggle=2;" edge="1" parent="1">
          <mxGeometry width="50" height="50" relative="1" as="geometry">
            <mxPoint x="230" y="406" as="sourcePoint" />
            <mxPoint x="350" y="406" as="targetPoint" />
          </mxGeometry>
        </mxCell>
        <mxCell id="Ffj6h-5UyAmUtSpPR5nd-43" value="&lt;div&gt;&lt;br&gt;&lt;/div&gt;&lt;div&gt;&lt;br&gt;&lt;/div&gt;" style="edgeLabel;html=1;align=center;verticalAlign=middle;resizable=0;points=[];sketch=1;hachureGap=4;jiggle=2;curveFitting=1;fontFamily=Architects Daughter;fontSource=https%3A%2F%2Ffonts.googleapis.com%2Fcss%3Ffamily%3DArchitects%2BDaughter;" vertex="1" connectable="0" parent="Ffj6h-5UyAmUtSpPR5nd-42">
          <mxGeometry x="0.8869" y="-3" relative="1" as="geometry">
            <mxPoint as="offset" />
          </mxGeometry>
        </mxCell>
        <mxCell id="Ffj6h-5UyAmUtSpPR5nd-47" value="L" style="text;html=1;align=center;verticalAlign=middle;resizable=0;points=[];autosize=1;strokeColor=none;fillColor=none;fontFamily=Architects Daughter;fontSource=https%3A%2F%2Ffonts.googleapis.com%2Fcss%3Ffamily%3DArchitects%2BDaughter;fontSize=16;" vertex="1" parent="1">
          <mxGeometry x="270" y="406" width="30" height="30" as="geometry" />
        </mxCell>
        <mxCell id="Ffj6h-5UyAmUtSpPR5nd-48" value="" style="endArrow=classic;startArrow=classic;html=1;rounded=0;shadow=0;sketch=1;curveFitting=1;jiggle=2;" edge="1" parent="1">
          <mxGeometry width="50" height="50" relative="1" as="geometry">
            <mxPoint x="230" y="366" as="sourcePoint" />
            <mxPoint x="310" y="366" as="targetPoint" />
          </mxGeometry>
        </mxCell>
        <mxCell id="Ffj6h-5UyAmUtSpPR5nd-49" value="&lt;div&gt;&lt;br&gt;&lt;/div&gt;&lt;div&gt;&lt;br&gt;&lt;/div&gt;" style="edgeLabel;html=1;align=center;verticalAlign=middle;resizable=0;points=[];sketch=1;hachureGap=4;jiggle=2;curveFitting=1;fontFamily=Architects Daughter;fontSource=https%3A%2F%2Ffonts.googleapis.com%2Fcss%3Ffamily%3DArchitects%2BDaughter;" vertex="1" connectable="0" parent="Ffj6h-5UyAmUtSpPR5nd-48">
          <mxGeometry x="0.8869" y="-3" relative="1" as="geometry">
            <mxPoint as="offset" />
          </mxGeometry>
        </mxCell>
        <mxCell id="Ffj6h-5UyAmUtSpPR5nd-50" value="L&lt;sub&gt;new&lt;/sub&gt;" style="text;html=1;align=center;verticalAlign=middle;resizable=0;points=[];autosize=1;strokeColor=none;fillColor=none;fontFamily=Architects Daughter;fontSource=https%3A%2F%2Ffonts.googleapis.com%2Fcss%3Ffamily%3DArchitects%2BDaughter;fontSize=16;" vertex="1" parent="1">
          <mxGeometry x="240" y="356" width="60" height="40" as="geometry" />
        </mxCell>
        <mxCell id="Ffj6h-5UyAmUtSpPR5nd-51" value="W&lt;sub&gt;v&lt;/sub&gt;" style="text;html=1;align=center;verticalAlign=middle;resizable=0;points=[];autosize=1;strokeColor=none;fillColor=none;fontFamily=Architects Daughter;fontSource=https%3A%2F%2Ffonts.googleapis.com%2Fcss%3Ffamily%3DArchitects%2BDaughter;fontSize=16;" vertex="1" parent="1">
          <mxGeometry x="430" y="366" width="50" height="40" as="geometry" />
        </mxCell>
        <mxCell id="Ffj6h-5UyAmUtSpPR5nd-52" value="H&lt;sub&gt;v&lt;/sub&gt;" style="text;html=1;align=center;verticalAlign=middle;resizable=0;points=[];autosize=1;strokeColor=none;fillColor=none;fontFamily=Architects Daughter;fontSource=https%3A%2F%2Ffonts.googleapis.com%2Fcss%3Ffamily%3DArchitects%2BDaughter;fontSize=16;" vertex="1" parent="1">
          <mxGeometry x="360" y="426" width="40" height="40" as="geometry" />
        </mxCell>
        <mxCell id="Ffj6h-5UyAmUtSpPR5nd-53" value="H&lt;span style=&quot;font-size: 13.3333px;&quot;&gt;&lt;sub&gt;c&lt;/sub&gt;&lt;/span&gt;" style="text;html=1;align=center;verticalAlign=middle;resizable=0;points=[];autosize=1;strokeColor=none;fillColor=none;fontFamily=Architects Daughter;fontSource=https%3A%2F%2Ffonts.googleapis.com%2Fcss%3Ffamily%3DArchitects%2BDaughter;fontSize=16;" vertex="1" parent="1">
          <mxGeometry x="170" y="431" width="40" height="30" as="geometry" />
        </mxCell>
        <mxCell id="Ffj6h-5UyAmUtSpPR5nd-54" value="0.1 W" style="text;html=1;align=center;verticalAlign=middle;resizable=0;points=[];autosize=1;strokeColor=none;fillColor=none;fontFamily=Architects Daughter;fontSource=https%3A%2F%2Ffonts.googleapis.com%2Fcss%3Ffamily%3DArchitects%2BDaughter;fontSize=16;" vertex="1" parent="1">
          <mxGeometry x="560" y="306" width="60" height="30" as="geometry" />
        </mxCell>
        <mxCell id="Ffj6h-5UyAmUtSpPR5nd-55" value="0.1 H&lt;sub&gt;v&lt;/sub&gt;" style="text;html=1;align=center;verticalAlign=middle;resizable=0;points=[];autosize=1;strokeColor=none;fillColor=none;fontFamily=Architects Daughter;fontSource=https%3A%2F%2Ffonts.googleapis.com%2Fcss%3Ffamily%3DArchitects%2BDaughter;fontSize=16;" vertex="1" parent="1">
          <mxGeometry x="270" y="576" width="60" height="40" as="geometry" />
        </mxCell>
        <mxCell id="Ffj6h-5UyAmUtSpPR5nd-59" value="" style="rounded=0;whiteSpace=wrap;html=1;sketch=1;hachureGap=4;jiggle=2;curveFitting=1;fontFamily=Architects Daughter;fontSource=https%3A%2F%2Ffonts.googleapis.com%2Fcss%3Ffamily%3DArchitects%2BDaughter;strokeColor=#9AC7BF;fillColor=none;" vertex="1" parent="1">
          <mxGeometry x="70" y="166" width="30" height="10" as="geometry" />
        </mxCell>
        <mxCell id="Ffj6h-5UyAmUtSpPR5nd-60" value="Contenedor del video" style="text;html=1;align=center;verticalAlign=middle;resizable=0;points=[];autosize=1;strokeColor=none;fillColor=none;fontFamily=Architects Daughter;fontSource=https%3A%2F%2Ffonts.googleapis.com%2Fcss%3Ffamily%3DArchitects%2BDaughter;fontSize=14;" vertex="1" parent="1">
          <mxGeometry x="100" y="156" width="160" height="30" as="geometry" />
        </mxCell>
        <mxCell id="Ffj6h-5UyAmUtSpPR5nd-61" value="" style="whiteSpace=wrap;html=1;aspect=fixed;sketch=1;hachureGap=4;jiggle=2;curveFitting=1;fontFamily=Architects Daughter;fontSource=https%3A%2F%2Ffonts.googleapis.com%2Fcss%3Ffamily%3DArchitects%2BDaughter;fillColor=none;strokeColor=#FFCE9F;" vertex="1" parent="1">
          <mxGeometry x="75" y="186" width="20" height="20" as="geometry" />
        </mxCell>
        <mxCell id="Ffj6h-5UyAmUtSpPR5nd-62" value="Tamaño actual del video" style="text;html=1;align=center;verticalAlign=middle;resizable=0;points=[];autosize=1;strokeColor=none;fillColor=none;fontFamily=Architects Daughter;fontSource=https%3A%2F%2Ffonts.googleapis.com%2Fcss%3Ffamily%3DArchitects%2BDaughter;fontSize=14;" vertex="1" parent="1">
          <mxGeometry x="100" y="181" width="180" height="30" as="geometry" />
        </mxCell>
        <mxCell id="Ffj6h-5UyAmUtSpPR5nd-63" value="" style="whiteSpace=wrap;html=1;aspect=fixed;sketch=1;hachureGap=4;jiggle=2;curveFitting=1;fontFamily=Architects Daughter;fontSource=https%3A%2F%2Ffonts.googleapis.com%2Fcss%3Ffamily%3DArchitects%2BDaughter;fillColor=none;strokeColor=#99CCFF;" vertex="1" parent="1">
          <mxGeometry x="75" y="216" width="20" height="20" as="geometry" />
        </mxCell>
        <mxCell id="Ffj6h-5UyAmUtSpPR5nd-64" value="Nuevo tamaño del video" style="text;html=1;align=center;verticalAlign=middle;resizable=0;points=[];autosize=1;strokeColor=none;fillColor=none;fontFamily=Architects Daughter;fontSource=https%3A%2F%2Ffonts.googleapis.com%2Fcss%3Ffamily%3DArchitects%2BDaughter;fontSize=14;" vertex="1" parent="1">
          <mxGeometry x="105" y="211" width="170" height="30" as="geometry" />
        </mxCell>
        <mxCell id="Ffj6h-5UyAmUtSpPR5nd-66" value="escala = 110% = 1.1" style="text;html=1;align=left;verticalAlign=middle;resizable=0;points=[];autosize=1;strokeColor=none;fillColor=none;fontFamily=Architects Daughter;fontSource=https%3A%2F%2Ffonts.googleapis.com%2Fcss%3Ffamily%3DArchitects%2BDaughter;fontSize=14;fontStyle=1" vertex="1" parent="1">
          <mxGeometry x="130" y="646" width="120" height="30" as="geometry" />
        </mxCell>
        <mxCell id="Ffj6h-5UyAmUtSpPR5nd-67" value="O&lt;span style=&quot;font-size: 11.6667px;&quot;&gt;&lt;sub&gt;0&lt;/sub&gt;&lt;/span&gt;&amp;nbsp;: posición del contenedor" style="text;html=1;align=left;verticalAlign=middle;resizable=0;points=[];autosize=1;strokeColor=none;fillColor=none;fontFamily=Architects Daughter;fontSource=https%3A%2F%2Ffonts.googleapis.com%2Fcss%3Ffamily%3DArchitects%2BDaughter;fontSize=14;" vertex="1" parent="1">
          <mxGeometry x="310" y="156" width="210" height="30" as="geometry" />
        </mxCell>
        <mxCell id="Ffj6h-5UyAmUtSpPR5nd-68" value="O&lt;sub&gt;1&lt;/sub&gt; : posición inicial del video" style="text;html=1;align=left;verticalAlign=middle;resizable=0;points=[];autosize=1;strokeColor=none;fillColor=none;fontFamily=Architects Daughter;fontSource=https%3A%2F%2Ffonts.googleapis.com%2Fcss%3Ffamily%3DArchitects%2BDaughter;fontSize=14;" vertex="1" parent="1">
          <mxGeometry x="310" y="181" width="200" height="30" as="geometry" />
        </mxCell>
        <mxCell id="Ffj6h-5UyAmUtSpPR5nd-69" value="O&lt;sub&gt;2&lt;/sub&gt; : nueva posición del video centrado&lt;div&gt;&lt;span style=&quot;background-color: initial;&quot;&gt;&amp;nbsp;respecto al contenedor&lt;/span&gt;&lt;/div&gt;" style="text;html=1;align=left;verticalAlign=middle;resizable=0;points=[];autosize=1;strokeColor=none;fillColor=none;fontFamily=Architects Daughter;fontSource=https%3A%2F%2Ffonts.googleapis.com%2Fcss%3Ffamily%3DArchitects%2BDaughter;fontSize=14;" vertex="1" parent="1">
          <mxGeometry x="310" y="211" width="270" height="50" as="geometry" />
        </mxCell>
        <mxCell id="Ffj6h-5UyAmUtSpPR5nd-71" value="W&lt;sub&gt;v&lt;/sub&gt; : ancho inicial del video" style="text;html=1;align=left;verticalAlign=middle;resizable=0;points=[];autosize=1;strokeColor=none;fillColor=none;fontFamily=Architects Daughter;fontSource=https%3A%2F%2Ffonts.googleapis.com%2Fcss%3Ffamily%3DArchitects%2BDaughter;fontSize=14;" vertex="1" parent="1">
          <mxGeometry x="610" y="140" width="190" height="30" as="geometry" />
        </mxCell>
        <mxCell id="Ffj6h-5UyAmUtSpPR5nd-72" value="H&lt;sub&gt;v&lt;/sub&gt; : alto inicial del video" style="text;html=1;align=left;verticalAlign=middle;resizable=0;points=[];autosize=1;strokeColor=none;fillColor=none;fontFamily=Architects Daughter;fontSource=https%3A%2F%2Ffonts.googleapis.com%2Fcss%3Ffamily%3DArchitects%2BDaughter;fontSize=14;" vertex="1" parent="1">
          <mxGeometry x="610" y="170" width="170" height="30" as="geometry" />
        </mxCell>
        <mxCell id="Ffj6h-5UyAmUtSpPR5nd-73" value="H&lt;sub&gt;c&lt;/sub&gt; : alto del contenedor" style="text;html=1;align=left;verticalAlign=middle;resizable=0;points=[];autosize=1;strokeColor=none;fillColor=none;fontFamily=Architects Daughter;fontSource=https%3A%2F%2Ffonts.googleapis.com%2Fcss%3Ffamily%3DArchitects%2BDaughter;fontSize=14;" vertex="1" parent="1">
          <mxGeometry x="610" y="200" width="180" height="30" as="geometry" />
        </mxCell>
        <mxCell id="Ffj6h-5UyAmUtSpPR5nd-74" value="L : (left) distancia en el eje X entre las&amp;nbsp;&lt;span style=&quot;background-color: initial;&quot;&gt;posiciones&amp;nbsp;&lt;/span&gt;&lt;div style=&quot;&quot;&gt;&lt;span style=&quot;background-color: initial;&quot;&gt;inciales del contenedor y el video&lt;/span&gt;&lt;/div&gt;" style="text;html=1;align=left;verticalAlign=middle;resizable=0;points=[];autosize=1;strokeColor=none;fillColor=none;fontFamily=Architects Daughter;fontSource=https%3A%2F%2Ffonts.googleapis.com%2Fcss%3Ffamily%3DArchitects%2BDaughter;fontSize=14;" vertex="1" parent="1">
          <mxGeometry x="610" y="230" width="350" height="50" as="geometry" />
        </mxCell>
        <mxCell id="Ffj6h-5UyAmUtSpPR5nd-75" value="L&lt;sub&gt;new&lt;/sub&gt; = L - 0.05W = L - ((escala - 1)/2) * W&lt;sub&gt;v&lt;/sub&gt;" style="text;html=1;align=left;verticalAlign=middle;resizable=0;points=[];autosize=1;strokeColor=none;fillColor=none;fontFamily=Architects Daughter;fontSource=https%3A%2F%2Ffonts.googleapis.com%2Fcss%3Ffamily%3DArchitects%2BDaughter;fontSize=14;" vertex="1" parent="1">
          <mxGeometry x="160" y="726" width="310" height="30" as="geometry" />
        </mxCell>
        <mxCell id="Ffj6h-5UyAmUtSpPR5nd-77" value="Top = (H&lt;sub&gt;c&lt;/sub&gt; - 1.1 H&lt;sub&gt;v&lt;/sub&gt;)/2 = (H&lt;sub&gt;c&lt;/sub&gt; - escala*H&lt;sub&gt;v&lt;/sub&gt;)/2" style="text;html=1;align=left;verticalAlign=middle;resizable=0;points=[];autosize=1;strokeColor=none;fillColor=none;fontFamily=Architects Daughter;fontSource=https%3A%2F%2Ffonts.googleapis.com%2Fcss%3Ffamily%3DArchitects%2BDaughter;fontSize=14;" vertex="1" parent="1">
          <mxGeometry x="500" y="696" width="280" height="30" as="geometry" />
        </mxCell>
        <mxCell id="Ffj6h-5UyAmUtSpPR5nd-79" value="Top" style="text;html=1;align=center;verticalAlign=middle;resizable=0;points=[];autosize=1;strokeColor=none;fillColor=none;fontFamily=Architects Daughter;fontSource=https%3A%2F%2Ffonts.googleapis.com%2Fcss%3Ffamily%3DArchitects%2BDaughter;fontSize=16;" vertex="1" parent="1">
          <mxGeometry x="260" y="321" width="50" height="30" as="geometry" />
        </mxCell>
        <mxCell id="Ffj6h-5UyAmUtSpPR5nd-80" value="" style="endArrow=classic;startArrow=classic;html=1;rounded=0;shadow=0;sketch=1;curveFitting=1;jiggle=2;" edge="1" parent="1">
          <mxGeometry width="50" height="50" relative="1" as="geometry">
            <mxPoint x="226" y="566" as="sourcePoint" />
            <mxPoint x="670" y="566" as="targetPoint" />
          </mxGeometry>
        </mxCell>
        <mxCell id="Ffj6h-5UyAmUtSpPR5nd-81" value="&lt;div&gt;&lt;br&gt;&lt;/div&gt;&lt;div&gt;&lt;br&gt;&lt;/div&gt;" style="edgeLabel;html=1;align=center;verticalAlign=middle;resizable=0;points=[];sketch=1;hachureGap=4;jiggle=2;curveFitting=1;fontFamily=Architects Daughter;fontSource=https%3A%2F%2Ffonts.googleapis.com%2Fcss%3Ffamily%3DArchitects%2BDaughter;" vertex="1" connectable="0" parent="Ffj6h-5UyAmUtSpPR5nd-80">
          <mxGeometry x="0.8869" y="-3" relative="1" as="geometry">
            <mxPoint as="offset" />
          </mxGeometry>
        </mxCell>
        <mxCell id="Ffj6h-5UyAmUtSpPR5nd-82" value="W&lt;span style=&quot;font-size: 13.3333px;&quot;&gt;&lt;sub&gt;c&lt;/sub&gt;&lt;/span&gt;" style="text;html=1;align=center;verticalAlign=middle;resizable=0;points=[];autosize=1;strokeColor=none;fillColor=none;fontFamily=Architects Daughter;fontSource=https%3A%2F%2Ffonts.googleapis.com%2Fcss%3Ffamily%3DArchitects%2BDaughter;fontSize=16;" vertex="1" parent="1">
          <mxGeometry x="420" y="566" width="50" height="30" as="geometry" />
        </mxCell>
        <mxCell id="Ffj6h-5UyAmUtSpPR5nd-83" value="L&lt;sub&gt;new&lt;/sub&gt; = (W&lt;sub&gt;c&lt;/sub&gt; - 1.1 W&lt;sub&gt;v&lt;/sub&gt;)/2 = (W&lt;sub&gt;c&lt;/sub&gt; - escala*W&lt;sub&gt;v&lt;/sub&gt;)/2" style="text;html=1;align=left;verticalAlign=middle;resizable=0;points=[];autosize=1;strokeColor=none;fillColor=none;fontFamily=Architects Daughter;fontSource=https%3A%2F%2Ffonts.googleapis.com%2Fcss%3Ffamily%3DArchitects%2BDaughter;fontSize=14;" vertex="1" parent="1">
          <mxGeometry x="160" y="696" width="310" height="30" as="geometry" />
        </mxCell>
        <mxCell id="Ffj6h-5UyAmUtSpPR5nd-85" value="nota: La nueva posición del video (O&lt;sub&gt;2&lt;/sub&gt;) para que este centrado en función del contenedor(O&lt;sub&gt;0&lt;/sub&gt;) se determina&amp;nbsp;&lt;div&gt;conociendo las diferencias entre las alturas y anchuras del contenedor y el video, y dividiéndolas entre dos.&amp;nbsp;&lt;/div&gt;&lt;div&gt;En el caso de L&lt;sub&gt;new&lt;/sub&gt;, se puede determinar de dos maneras, una de ellas utilizando las propiedades CSS.&lt;/div&gt;" style="text;html=1;align=left;verticalAlign=middle;resizable=0;points=[];autosize=1;strokeColor=none;fillColor=none;fontFamily=Architects Daughter;fontSource=https%3A%2F%2Ffonts.googleapis.com%2Fcss%3Ffamily%3DArchitects%2BDaughter;fontSize=14;" vertex="1" parent="1">
          <mxGeometry x="120" y="780" width="730" height="70" as="geometry" />
        </mxCell>
        <mxCell id="Ffj6h-5UyAmUtSpPR5nd-88" value="" style="rounded=0;whiteSpace=wrap;html=1;sketch=1;hachureGap=4;jiggle=2;curveFitting=1;fontFamily=Architects Daughter;fontSource=https%3A%2F%2Ffonts.googleapis.com%2Fcss%3Ffamily%3DArchitects%2BDaughter;fillColor=none;" vertex="1" parent="1">
          <mxGeometry x="145" y="686" width="645" height="80" as="geometry" />
        </mxCell>
        <mxCell id="Ffj6h-5UyAmUtSpPR5nd-89" value="" style="endArrow=none;html=1;rounded=0;sketch=1;hachureGap=4;jiggle=2;curveFitting=1;fontFamily=Architects Daughter;fontSource=https%3A%2F%2Ffonts.googleapis.com%2Fcss%3Ffamily%3DArchitects%2BDaughter;entryX=0.5;entryY=0;entryDx=0;entryDy=0;exitX=0.5;exitY=1;exitDx=0;exitDy=0;" edge="1" parent="1" source="Ffj6h-5UyAmUtSpPR5nd-88" target="Ffj6h-5UyAmUtSpPR5nd-88">
          <mxGeometry width="50" height="50" relative="1" as="geometry">
            <mxPoint x="520" y="746" as="sourcePoint" />
            <mxPoint x="570" y="696" as="targetPoint" />
          </mxGeometry>
        </mxCell>
        <mxCell id="Ffj6h-5UyAmUtSpPR5nd-90" value="&lt;b&gt;&lt;font style=&quot;font-size: 30px;&quot;&gt;ZOOM&lt;/font&gt;&lt;/b&gt;" style="text;html=1;align=left;verticalAlign=middle;resizable=0;points=[];autosize=1;strokeColor=none;fillColor=none;fontFamily=Architects Daughter;fontSource=https%3A%2F%2Ffonts.googleapis.com%2Fcss%3Ffamily%3DArchitects%2BDaughter;fontSize=14;" vertex="1" parent="1">
          <mxGeometry x="425" y="70" width="110" height="50" as="geometry" />
        </mxCell>
      </root>
    </mxGraphModel>
  </diagram>
</mxfile>
